<?xml version="1.0" encoding="utf-8"?><!-- Uploaded to: SVG Repo, www.svgrepo.com, Generator: SVG Repo Mixer Tools -->
<svg width="800px" height="800px" viewBox="0 0 24 24" fill="none" xmlns="http://www.w3.org/2000/svg">
<path d="M9.54434 4.75C9.13013 4.75 8.79434 5.08579 8.79434 5.5C8.79434 5.91421 9.13013 6.25 9.54434 6.25V4.75ZM12.8808 6.25C13.295 6.25 13.6308 5.91421 13.6308 5.5C13.6308 5.08579 13.295 4.75 12.8808 4.75V6.25ZM9.26255 17.836C9.67676 17.836 10.0125 17.5002 10.0125 17.086C10.0125 16.6718 9.67676 16.336 9.26255 16.336V17.836ZM7.2599 17.086L7.2517 17.836H7.2599V17.086ZM6.07527 16.386L6.72434 16.01L6.71802 15.9995L6.07527 16.386ZM6.20592 12.246L5.45592 12.2402V12.246H6.20592ZM11.2125 7.18701L11.2072 7.93707L11.2179 7.93699L11.2125 7.18701ZM16.2192 12.247L16.9692 12.247L16.9692 12.2413L16.2192 12.247ZM16.3498 16.385L15.7077 15.9973L15.7008 16.0091L16.3498 16.385ZM15.1652 17.085V17.8351L15.1734 17.835L15.1652 17.085ZM13.1626 16.335C12.7483 16.335 12.4126 16.6708 12.4126 17.085C12.4126 17.4992 12.7483 17.835 13.1626 17.835V16.335ZM10.0126 17.085C10.0126 16.6707 9.67678 16.335 9.26257 16.335C8.84835 16.335 8.51257 16.6707 8.51257 17.085H10.0126ZM9.26257 17.568H8.51245L8.51268 17.5809L9.26257 17.568ZM11.2126 19.5L11.2256 18.7501C11.2169 18.7499 11.2082 18.7499 11.1995 18.7501L11.2126 19.5ZM13.1626 17.569L13.9126 17.5822V17.569H13.1626ZM13.9126 17.086C13.9126 16.6717 13.5768 16.336 13.1626 16.336C12.7484 16.336 12.4126 16.6717 12.4126 17.086H13.9126ZM9.26257 16.3361C8.84835 16.3361 8.51257 16.6718 8.51257 17.0861C8.51257 17.5003 8.84835 17.8361 9.26257 17.8361V16.3361ZM13.1626 17.8361C13.5768 17.8361 13.9126 17.5003 13.9126 17.0861C13.9126 16.6718 13.5768 16.3361 13.1626 16.3361V17.8361ZM9.54434 6.25H12.8808V4.75H9.54434V6.25ZM9.26255 16.336H7.2599V17.836H9.26255V16.336ZM7.2681 16.3361C7.05194 16.3337 6.84343 16.2158 6.72425 16.0101L5.4263 16.7619C5.80456 17.4149 6.49402 17.8277 7.2517 17.836L7.2681 16.3361ZM6.71802 15.9995C6.58242 15.774 6.5634 15.4686 6.66285 14.9284C6.71759 14.6311 6.77072 14.4296 6.84029 14.0805C6.90045 13.7786 6.95592 13.4367 6.95592 13.086H5.45592C5.45592 13.2883 5.42328 13.516 5.36922 13.7874C5.32456 14.0115 5.23735 14.3868 5.18764 14.6569C5.0782 15.2514 4.99385 16.043 5.43253 16.7725L6.71802 15.9995ZM6.95592 13.086V12.246H5.45592V13.086H6.95592ZM6.9559 12.2519C6.9748 9.83354 8.895 7.92064 11.2072 7.93699L11.2179 6.43703C8.04211 6.41457 5.48104 9.02983 5.45595 12.2402L6.9559 12.2519ZM11.2179 7.93699C13.5304 7.92064 15.4508 9.83405 15.4692 12.2527L16.9692 12.2413C16.9447 9.03053 14.3834 6.41458 11.2072 6.43703L11.2179 7.93699ZM15.4692 12.247V13.085H16.9692V12.247H15.4692ZM15.4692 13.085C15.4692 13.4365 15.5246 13.779 15.5848 14.0815C15.6545 14.4321 15.7073 14.6321 15.7622 14.9304C15.8618 15.4713 15.8423 15.7745 15.7078 15.9973L16.9918 16.7727C17.4316 16.0445 17.3468 15.2527 17.2375 14.6589C17.1879 14.3898 17.1004 14.0125 17.0559 13.7889C17.0019 13.5171 16.9692 13.2885 16.9692 13.085H15.4692ZM15.7008 16.0091C15.5817 16.2148 15.3732 16.3327 15.157 16.3351L15.1734 17.835C15.9311 17.8267 16.6205 17.4139 16.9988 16.7609L15.7008 16.0091ZM15.1652 16.335H13.1626V17.835H15.1652V16.335ZM8.51257 17.085V17.568H10.0126V17.085H8.51257ZM8.51268 17.5809C8.53818 19.0627 9.73512 20.2757 11.2256 20.2498L11.1995 18.7501C10.573 18.761 10.0243 18.2445 10.0125 17.5551L8.51268 17.5809ZM11.1995 20.2498C12.6895 20.2757 13.8862 19.0635 13.9124 17.5822L12.4127 17.5557C12.4005 18.2449 11.8519 18.761 11.2256 18.7501L11.1995 20.2498ZM13.9126 17.569V17.086H12.4126V17.569H13.9126ZM9.26257 17.8361H13.1626V16.3361H9.26257V17.8361Z" fill="#000000"/>
</svg>